# xmcd CD database file
#
# Track frame offsets:
#	150
#	11551
#	27456
#	41696
#	54728
#	67309
#	79590
#	93677
#	107331
#	122924
#	136136
#	148826
#	163003
#	175536
#	188316
#	201956
#	215428
#	232977
#	245871
#	259607
#
# Disc length: 3645 seconds
#
# Revision: 0
# Processed by: cddbd v1.5.2PL0 Copyright (c) Steve Scherf et al.
# Submitted via: CDex 1.51
#
DISCID=1d0e3b14
DTITLE=Bratislava Hot Serenaders - Take It Easy
DYEAR=2008
DGENRE=Jazz
TTITLE0=The Creeper
TTITLE1=Creole Love Call
TTITLE2=East St. Louis Toodle-Oo
TTITLE3=Washington Wobble
TTITLE4=Take It Easy
TTITLE5=Jubilee Stomp
TTITLE6=Black Beauty (FIRE WATER)
TTITLE7=I Can't Give You Anything But Love
TTITLE8=The Mooche
TTITLE9=Swampy River
TTITLE10=Cotton Club Stomp
TTITLE11=The Dicty Glide
TTITLE12=Double Check Stomp
TTITLE13=Sweet Jazz Of Mine
TTITLE14=Jungle Nights In Harlem
TTITLE15=Old Man Blues
TTITLE16=Mood Indigo
TTITLE17=Cotton Club Stomp (TAKE B)
TTITLE18=Rockin In Rhythm
TTITLE19=Black Beauty (FIRE WATER) (piano solo version)
EXTD=YEAR: 2008
EXTT0=
EXTT1=
EXTT2=
EXTT3=
EXTT4=
EXTT5=
EXTT6=
EXTT7=
EXTT8=
EXTT9=
EXTT10=
EXTT11=
EXTT12=
EXTT13=
EXTT14=
EXTT15=
EXTT16=
EXTT17=
EXTT18=
EXTT19=
PLAYORDER=
